<svg width="186" height="55" viewBox="0 0 186 55" fill="none" xmlns="http://www.w3.org/2000/svg">
<path d="M16 10.42H17.02V18.76H15.64C13.4 18.76 11.44 19.16 9.76 19.96V46H0.7V10.6H9.22V13C11.26 11.76 12.68 11.02 13.48 10.78C14.32 10.54 15.16 10.42 16 10.42ZM27.3559 35.74V37.42C27.3559 38.78 28.0559 39.46 29.4559 39.46C30.6559 39.46 31.6559 39.24 32.4559 38.8V31.54L29.6959 32.26C28.6959 32.54 28.0559 32.9 27.7759 33.34C27.4959 33.78 27.3559 34.58 27.3559 35.74ZM20.3359 11.44C22.5359 10.68 25.6759 10.3 29.7559 10.3C33.8359 10.3 36.7559 11.2 38.5159 13C40.2759 14.76 41.1559 17.44 41.1559 21.04V46H32.6959V43.42C31.5359 45.22 29.5159 46.12 26.6359 46.12C23.7559 46.12 21.6759 45.44 20.3959 44.08C19.1159 42.68 18.4759 40.46 18.4759 37.42V35.38C18.4759 32.7 19.0559 30.64 20.2159 29.2C21.4159 27.76 23.3359 26.68 25.9759 25.96L32.5159 24.28V20.98C32.4759 19.94 32.1759 19.22 31.6159 18.82C31.0559 18.38 30.0359 18.16 28.5559 18.16C25.2359 18.16 22.4959 18.58 20.3359 19.42V11.44ZM70.5873 14.5H68.4873C68.1673 14.5 67.7273 14.54 67.1673 14.62C67.9273 15.9 68.3073 17.5 68.3073 19.42V24.58C68.3073 27.54 67.3873 29.84 65.5473 31.48C63.7073 33.12 60.9273 33.98 57.2073 34.06C56.1673 34.06 55.6473 34.5 55.6473 35.38C55.6473 35.9 55.8073 36.26 56.1273 36.46C56.4873 36.62 57.1273 36.7 58.0473 36.7H61.3473C64.4273 36.7 66.7073 37.32 68.1873 38.56C69.7073 39.76 70.4673 41.66 70.4673 44.26V45.76C70.4673 48.68 69.4073 50.94 67.2873 52.54C65.1673 54.18 62.0073 55 57.8073 55H55.5873C53.0273 55 50.7673 54.72 48.8073 54.16C46.8473 53.64 45.3873 53.04 44.4273 52.36V44.14C45.5473 45.02 47.1073 45.78 49.1073 46.42C51.1073 47.1 53.1873 47.44 55.3473 47.44H56.6073C58.6873 47.44 60.1073 47.28 60.8673 46.96C61.6673 46.68 62.0673 46.2 62.0673 45.52V45.22C62.0673 44.42 61.3873 44.02 60.0273 44.02H56.3673C53.4873 44.02 51.3273 43.6 49.8873 42.76C48.4473 41.92 47.7273 40.56 47.7273 38.68V37.72C47.7273 35.2 48.8473 33.74 51.0873 33.34C46.9673 31.98 44.9073 29.06 44.9073 24.58V19.42C44.9073 16.42 45.8673 14.1 47.7873 12.46C49.7473 10.82 52.6873 10 56.6073 10C59.2073 10 61.3873 10.36 63.1473 11.08C64.0673 8 66.2273 6.46 69.6273 6.46H70.5873V14.5ZM59.3073 24.52V19.48C59.3073 17.92 58.4073 17.14 56.6073 17.14C54.8073 17.14 53.9073 17.92 53.9073 19.48V24.52C53.9073 26.08 54.8073 26.86 56.6073 26.86C58.4073 26.86 59.3073 26.08 59.3073 24.52ZM112.749 18.64H110.769C108.889 18.64 107.949 19.66 107.949 21.7V36.04C107.949 37.28 108.609 37.9 109.929 37.9C110.809 37.9 111.749 37.7 112.749 37.3V18.64ZM110.049 10.6H121.809V54.94H112.749V45.22C111.309 45.74 109.489 46 107.289 46C101.689 46 98.8891 43.02 98.8891 37.06V21.34C98.8891 17.98 99.8091 15.36 101.649 13.48C103.489 11.56 106.289 10.6 110.049 10.6ZM140.764 10.6H149.824V46H141.304V44.38C139.344 45.46 137.104 46 134.584 46C132.104 46 130.204 45.32 128.884 43.96C127.564 42.6 126.904 40.64 126.904 38.08V10.6H136.084V36.28C136.084 37.32 136.664 37.84 137.824 37.84C138.984 37.84 139.964 37.6 140.764 37.12V10.6ZM159.712 9.58C156.392 9.58 154.732 8.02 154.732 4.9C154.732 1.74 156.392 0.159997 159.712 0.159997C163.072 0.159997 164.752 1.74 164.752 4.9C164.752 8.02 163.072 9.58 159.712 9.58ZM155.212 11.56H164.272V46H155.212V11.56ZM181.804 38.38C183.044 38.38 184.184 38.1 185.224 37.54V45.58C183.864 46.22 182.084 46.54 179.884 46.54C176.484 46.54 174.064 45.74 172.624 44.14C171.184 42.54 170.464 40.22 170.464 37.18V18.22H167.284V10.6H170.884L173.644 4.48H179.524V10.6H184.864V18.22H179.524V36.22C179.524 37.66 180.284 38.38 181.804 38.38Z" fill="#1D3557"/>
<path d="M72.9906 35.92V19.66C72.9906 16.62 73.9306 14.26 75.8106 12.58C77.6906 10.86 80.5306 10 84.3306 10C91.6506 10 95.3106 13.22 95.3106 19.66V31.84H81.6906V35.2C81.6906 36.4 82.0106 37.26 82.6506 37.78C83.3306 38.26 84.7906 38.5 87.0306 38.5C89.3106 38.5 91.7906 38.1 94.4706 37.3V45.22C91.6706 45.98 88.6706 46.36 85.4706 46.36C77.1506 46.36 72.9906 42.88 72.9906 35.92ZM81.6906 24.94H86.9706V19.78C86.9706 18.26 86.0906 17.5 84.3306 17.5C82.5706 17.5 81.6906 18.26 81.6906 19.78V24.94Z" fill="#C83C21"/>
</svg>
